<svg width="27" height="27" viewBox="0 0 27 27" fill="none" xmlns="http://www.w3.org/2000/svg">
<path d="M17.7188 18.5625C22.8445 18.5625 27 14.407 27 9.28125C27 4.15547 22.8445 0 17.7188 0C12.593 0 8.4375 4.15547 8.4375 9.28125C8.4375 10.2674 8.59043 11.2219 8.8752 12.1131L0.369141 20.6191C0.131836 20.8564 0 21.1781 0 21.5156V25.7344C0 26.4357 0.564258 27 1.26562 27H5.48438C6.18574 27 6.75 26.4357 6.75 25.7344V23.625H8.85938C9.56074 23.625 10.125 23.0607 10.125 22.3594V20.25H12.2344C12.5719 20.25 12.8936 20.1182 13.1309 19.8809L14.8869 18.1248C15.7781 18.4096 16.7326 18.5625 17.7188 18.5625ZM19.8281 9.28125C18.6627 9.28125 17.7188 8.33731 17.7188 7.17188C17.7188 6.00645 18.6627 5.0625 19.8281 5.0625C20.9936 5.0625 21.9375 6.00645 21.9375 7.17188C21.9375 8.33731 20.9936 9.28125 19.8281 9.28125Z" fill="#CCCCCC"/>
</svg>
