<svg width="28" height="28" viewBox="0 0 28 28" fill="none" xmlns="http://www.w3.org/2000/svg">
<mask id="mask0_215_1100" style="mask-type:luminance" maskUnits="userSpaceOnUse" x="0" y="0" width="28" height="28">
<path d="M0 0H28V28H0V0Z" fill="white"/>
</mask>
<g mask="url(#mask0_215_1100)">
<path fill-rule="evenodd" clip-rule="evenodd" d="M14 0C6.26733 0 0 6.2685 0 14C0 21.7315 6.26733 28 14 28C21.7315 28 28 21.7315 28 14C28 6.2685 21.7315 0 14 0ZM14.1633 22.1877C9.65067 22.1877 5.99667 18.5243 5.99667 14C5.99667 9.47567 9.65067 5.81233 14.1633 5.81233C16.3683 5.81233 18.2117 6.6255 19.6257 7.94617L17.3227 10.2538V10.2492C16.4652 9.43017 15.3778 9.01017 14.1633 9.01017C11.4683 9.01017 9.2785 11.2922 9.2785 13.9953C9.2785 16.6962 11.4683 18.9852 14.1633 18.9852C16.6087 18.9852 18.2723 17.5828 18.6153 15.6578H14.1633V12.4647H21.8458C21.9485 13.013 22.0033 13.5847 22.0033 14.1843C22.0033 18.8627 18.8802 22.1877 14.1633 22.1877Z" fill="#FF6363"/>
</g>
</svg>
