<svg width="29" height="28" viewBox="0 0 29 28" fill="none" xmlns="http://www.w3.org/2000/svg">
<path d="M5.29523 0C2.3619 0 0 2.28046 0 5.11263V22.8874C0 25.7196 2.3619 28 5.29523 28H15.2731V17.0538H12.2752V13.1128H15.2731V9.74576C15.2731 7.10046 17.0443 4.67163 21.1247 4.67163C22.7768 4.67163 23.9984 4.82476 23.9984 4.82476L23.9023 8.50503C23.9023 8.50503 22.6564 8.49366 21.2969 8.49366C19.8254 8.49366 19.5895 9.14824 19.5895 10.2349V13.1128H24.0192L23.8262 17.0538H19.5895V28.0001H23.7048C26.6381 28.0001 29 25.7196 29 22.8874V5.11266C29 2.28049 26.6381 2.8e-05 23.7048 2.8e-05H5.2952L5.29523 0Z" fill="white"/>
</svg>
