<svg width="34" height="34" viewBox="0 0 34 34" fill="none" xmlns="http://www.w3.org/2000/svg">
<path d="M32.2998 9.35001C32.2998 11.3789 31.4938 13.3247 30.0592 14.7594C28.6245 16.194 26.6787 17 24.6498 17C22.6209 17 20.6751 16.194 19.2404 14.7594C17.8058 13.3247 16.9998 11.3789 16.9998 9.35001C16.9998 7.32111 17.8058 5.3753 19.2404 3.94065C20.6751 2.50599 22.6209 1.70001 24.6498 1.70001C26.6787 1.70001 28.6245 2.50599 30.0592 3.94065C31.4938 5.3753 32.2998 7.32111 32.2998 9.35001ZM25.4998 5.95001C25.4998 5.72458 25.4103 5.50838 25.2508 5.34897C25.0914 5.18957 24.8752 5.10001 24.6498 5.10001C24.4244 5.10001 24.2082 5.18957 24.0488 5.34897C23.8894 5.50838 23.7998 5.72458 23.7998 5.95001V8.50001H21.2498C21.0244 8.50001 20.8082 8.58957 20.6488 8.74897C20.4894 8.90838 20.3998 9.12458 20.3998 9.35001C20.3998 9.57545 20.4894 9.79165 20.6488 9.95105C20.8082 10.1105 21.0244 10.2 21.2498 10.2H23.7998V12.75C23.7998 12.9754 23.8894 13.1916 24.0488 13.3511C24.2082 13.5105 24.4244 13.6 24.6498 13.6C24.8752 13.6 25.0914 13.5105 25.2508 13.3511C25.4103 13.1916 25.4998 12.9754 25.4998 12.75V10.2H28.0498C28.2752 10.2 28.4914 10.1105 28.6508 9.95105C28.8103 9.79165 28.8998 9.57545 28.8998 9.35001C28.8998 9.12458 28.8103 8.90838 28.6508 8.74897C28.4914 8.58957 28.2752 8.50001 28.0498 8.50001H25.4998V5.95001ZM24.6498 18.7C25.512 18.7008 26.3701 18.5824 27.1998 18.3481V29.75C27.1997 29.9067 27.1562 30.0604 27.0742 30.1939C26.9923 30.3275 26.8749 30.4358 26.7353 30.5069C26.5956 30.5779 26.439 30.609 26.2828 30.5966C26.1265 30.5843 25.9768 30.529 25.85 30.4368L16.9998 24.0006L8.14961 30.4368C8.02284 30.529 7.87307 30.5843 7.71685 30.5966C7.56062 30.609 7.40401 30.5779 7.26434 30.5069C7.12466 30.4358 7.00736 30.3275 6.92538 30.1939C6.8434 30.0604 6.79994 29.9067 6.7998 29.75V7.65001C6.7998 6.52284 7.24757 5.44184 8.0446 4.64481C8.84163 3.84778 9.92263 3.40001 11.0498 3.40001H17.4367C16.3083 4.76786 15.5921 6.42839 15.3717 8.18787C15.1513 9.94734 15.4358 11.7332 16.1919 13.3371C16.9481 14.9411 18.1448 16.2969 19.6423 17.2464C21.1399 18.196 22.8766 18.7001 24.6498 18.7Z" fill="#FF2A0C"/>
</svg>
