<svg width="64" height="64" viewBox="0 0 64 64" fill="none" xmlns="http://www.w3.org/2000/svg">
<path d="M55.0001 35.1L62.5001 42.5L29.2001 58.4C29.2001 58.4 24.8001 60.4 22.7001 57.2C14.5001 44.4 55.0001 35.1 55.0001 35.1Z" fill="#547725"/>
<path d="M28.4002 49.1C28.4002 49.1 22.0002 51.3 23.2002 55.6C24.4002 60 29.5002 57.3 29.5002 57.3L61.1002 42.6C61.1002 42.6 59.3002 37.9 62.5002 34.8L28.4002 49.1Z" fill="#D9E3E8"/>
<path d="M33.7002 5L64.0002 34.5L28.2002 48.5L5.2002 12.7L33.7002 5Z" fill="white"/>
<path d="M34.6001 11.7L40.4001 17.9L18.7001 25.7L13.6001 17.8L34.6001 11.7Z" fill="#B5B5B5"/>
<path d="M61.0002 38L39.9002 46.6L60.7002 37.1L61.0002 38ZM60.7002 40.6L38.2002 49.9L60.3002 39.6L60.7002 40.6ZM60.9002 42L32.2002 54.5L60.5002 41.1L60.9002 42Z" fill="#94989B"/>
<path d="M22.7 57.2C19.2 49.9 28.2 48.6 28.2 48.6L5.2 12.7C5.2 12.7 0 12.6 0 18C0 20.2 1 21.9 1 21.9L22.7 57.2Z" fill="#C2FF7C"/>
</svg>
