<svg width="34" height="34" viewBox="0 0 34 34" fill="none" xmlns="http://www.w3.org/2000/svg">
<path d="M29.4047 7.64336L25.8686 4.11055C25.6191 3.86001 25.3226 3.66122 24.9961 3.52561C24.6696 3.39 24.3196 3.32023 23.966 3.32031C23.2455 3.32031 22.5682 3.60254 22.0602 4.11055L18.2551 7.91562C18.0045 8.16507 17.8058 8.46155 17.6701 8.78805C17.5345 9.11455 17.4648 9.46462 17.4648 9.81816C17.4648 10.5387 17.7471 11.216 18.2551 11.724L21.0375 14.5064C20.3862 15.942 19.4807 17.248 18.3646 18.3613C17.2514 19.4801 15.9456 20.3889 14.5098 21.0441L11.7273 18.2617C11.4779 18.0112 11.1814 17.8124 10.8549 17.6768C10.5284 17.5412 10.1783 17.4714 9.82481 17.4715C9.1043 17.4715 8.42696 17.7537 7.91895 18.2617L4.11055 22.0635C3.8597 22.3134 3.66075 22.6104 3.52513 22.9375C3.38951 23.2646 3.3199 23.6153 3.32031 23.9693C3.32031 24.6898 3.60254 25.3672 4.11055 25.8752L7.64004 29.4047C8.4502 30.2182 9.56914 30.6797 10.718 30.6797C10.9604 30.6797 11.1928 30.6598 11.4219 30.6199C15.8977 29.8828 20.3369 27.5021 23.9195 23.9229C27.4988 20.3469 29.8762 15.9109 30.6232 11.4219C30.849 10.0506 30.3941 8.63945 29.4047 7.64336Z" fill="#DCD7D7"/>
</svg>
