<svg width="29" height="30" viewBox="0 0 29 30" fill="none" xmlns="http://www.w3.org/2000/svg">
<path d="M14.5003 10C13.2184 10 11.9891 10.5268 11.0826 11.4645C10.1762 12.4021 9.66699 13.6739 9.66699 15C9.66699 16.3261 10.1762 17.5979 11.0826 18.5355C11.9891 19.4732 13.2184 20 14.5003 20C15.7822 20 17.0116 19.4732 17.918 18.5355C18.8244 17.5979 19.3337 16.3261 19.3337 15C19.3337 13.6739 18.8244 12.4021 17.918 11.4645C17.0116 10.5268 15.7822 10 14.5003 10Z" fill="white"/>
<path fill-rule="evenodd" clip-rule="evenodd" d="M8.7 0C6.39262 0 4.17974 0.948212 2.54817 2.63604C0.916605 4.32387 0 6.61305 0 9L0 21C0 23.3869 0.916605 25.6761 2.54817 27.364C4.17974 29.0518 6.39262 30 8.7 30H20.3C22.6074 30 24.8203 29.0518 26.4518 27.364C28.0834 25.6761 29 23.3869 29 21V9C29 6.61305 28.0834 4.32387 26.4518 2.63604C24.8203 0.948212 22.6074 0 20.3 0L8.7 0ZM7.73333 15C7.73333 13.1435 8.44625 11.363 9.71524 10.0503C10.9842 8.7375 12.7054 8 14.5 8C16.2946 8 18.0158 8.7375 19.2848 10.0503C20.5538 11.363 21.2667 13.1435 21.2667 15C21.2667 16.8565 20.5538 18.637 19.2848 19.9497C18.0158 21.2625 16.2946 22 14.5 22C12.7054 22 10.9842 21.2625 9.71524 19.9497C8.44625 18.637 7.73333 16.8565 7.73333 15ZM21.2667 8H23.2V6H21.2667V8Z" fill="white"/>
</svg>
