<svg width="64" height="64" viewBox="0 0 64 64" fill="none" xmlns="http://www.w3.org/2000/svg">
<path d="M6.20806 57.475C6.20806 57.475 8.09006 64.504 19.8811 62.705L21.8811 58.003L18.4901 54.428L9.10505 51.423L6.20605 57.475" fill="#34484C"/>
<path d="M43.767 44.306C43.767 46.794 42.449 47.45 39.115 48.813L10.652 60.471C8.082 60.47 6 58.453 6 55.962V17.17C6 14.677 7.512 13.848 10.652 12.658L39.114 1C41.686 1 43.766 3.023 43.766 5.512V44.306" fill="#AD7029"/>
<path d="M8.58594 59.995C8.58594 59.995 19.2529 62.963 19.8799 62.706C20.4989 62.452 19.4809 58.221 19.4809 58.221L15.6229 54.191L12.0269 54.029L11.3959 54.898L8.58594 59.995Z" fill="#34484C"/>
<path d="M38.4471 3.687L6.86914 16.553L8.35014 24.796L13.0491 25.254L28.7391 22.805L38.4911 17.847L45.6711 8.313C44.1011 5.585 41.7971 3.895 38.4471 3.687Z" fill="#F4F5F5"/>
<path d="M15.2328 19.405C15.2328 18.682 15.3668 18.106 15.6238 17.615C12.3928 17.321 9.33979 16.415 7.11379 14.47C6.37279 15.13 6.00879 15.948 6.00879 17.169V55.96C6.00879 58.45 8.09679 60.469 10.6628 60.469L15.2558 58.59C15.2548 58.457 15.2338 58.33 15.2338 58.196V19.405" fill="#34484C"/>
<path d="M53.8192 48.127C53.8192 50.618 52.4972 51.272 49.1682 52.637L19.8782 62.707C17.3082 62.707 15.2222 60.688 15.2222 58.197V19.405C15.2222 16.915 16.7342 16.087 19.8782 14.891L49.1682 4.82401C51.7352 4.82401 53.8192 6.84401 53.8192 9.33601V48.127Z" fill="#F79420"/>
<path d="M41.6908 16.663C41.7202 16.7385 41.7341 16.8192 41.7318 16.9002C41.7294 16.9812 41.7108 17.061 41.677 17.1347C41.6433 17.2083 41.5951 17.2745 41.5352 17.3292C41.4754 17.3839 41.4052 17.426 41.3288 17.453L25.7538 23.282C25.5991 23.3399 25.4281 23.3359 25.2764 23.2706C25.1247 23.2054 25.0041 23.0841 24.9398 22.932C24.9102 22.8566 24.896 22.776 24.8982 22.6951C24.9003 22.6141 24.9187 22.5344 24.9523 22.4607C24.9859 22.387 25.034 22.3208 25.0937 22.2661C25.1534 22.2113 25.2234 22.1691 25.2998 22.142L40.8768 16.314C41.0315 16.2556 41.2028 16.2596 41.3547 16.325C41.5065 16.3905 41.627 16.5124 41.6908 16.665M41.6908 19.437C41.7202 19.5125 41.7341 19.5932 41.7318 19.6742C41.7294 19.7552 41.7108 19.835 41.677 19.9087C41.6433 19.9823 41.5951 20.0485 41.5352 20.1032C41.4754 20.1579 41.4052 20.2 41.3288 20.227L25.7538 26.046C25.5992 26.1052 25.4277 26.1018 25.2756 26.0364C25.1236 25.9711 25.0031 25.8489 24.9398 25.696C24.9109 25.6209 24.8974 25.5408 24.9 25.4604C24.9025 25.38 24.9211 25.3009 24.9546 25.2278C24.9882 25.1546 25.036 25.089 25.0952 25.0346C25.1545 24.9802 25.224 24.9382 25.2998 24.911L40.8768 19.082C41.0313 19.023 41.2028 19.0266 41.3547 19.0919C41.5067 19.1573 41.6273 19.2793 41.6908 19.432M36.3968 24.296C36.5218 24.612 36.4458 24.933 36.2238 25.016L25.5868 28.995C25.3648 29.075 25.0848 28.888 24.9578 28.575C24.8338 28.261 24.9128 27.937 25.1348 27.853L35.7718 23.876C35.9898 23.796 36.2708 23.982 36.3968 24.296Z" fill="#905A24"/>
</svg>
