<svg width="27" height="27" viewBox="0 0 27 27" fill="none" xmlns="http://www.w3.org/2000/svg">
<path d="M18.6923 11.4231C18.6923 9.42188 17.9811 7.71004 16.5586 6.28756C15.1361 4.86508 13.4243 4.15385 11.4231 4.15385C9.42188 4.15385 7.71004 4.86508 6.28756 6.28756C4.86508 7.71004 4.15385 9.42188 4.15385 11.4231C4.15385 13.4243 4.86508 15.1361 6.28756 16.5586C7.71004 17.9811 9.42188 18.6923 11.4231 18.6923C13.4243 18.6923 15.1361 17.9811 16.5586 16.5586C17.9811 15.1361 18.6923 13.4243 18.6923 11.4231ZM27 24.9231C27 25.4856 26.7945 25.9724 26.3834 26.3834C25.9724 26.7945 25.4856 27 24.9231 27C24.3389 27 23.8522 26.7945 23.4627 26.3834L17.8972 20.8341C15.9609 22.1755 13.8029 22.8462 11.4231 22.8462C9.8762 22.8462 8.39694 22.546 6.98528 21.9456C5.57362 21.3453 4.35667 20.534 3.33444 19.5117C2.3122 18.4895 1.5009 17.2725 0.900541 15.8609C0.30018 14.4492 0 12.97 0 11.4231C0 9.8762 0.30018 8.39694 0.900541 6.98528C1.5009 5.57362 2.3122 4.35667 3.33444 3.33444C4.35667 2.3122 5.57362 1.5009 6.98528 0.900541C8.39694 0.30018 9.8762 0 11.4231 0C12.97 0 14.4492 0.30018 15.8609 0.900541C17.2725 1.5009 18.4895 2.3122 19.5117 3.33444C20.534 4.35667 21.3453 5.57362 21.9456 6.98528C22.546 8.39694 22.8462 9.8762 22.8462 11.4231C22.8462 13.8029 22.1755 15.9609 20.8341 17.8972L26.3996 23.4627C26.7999 23.863 27 24.3498 27 24.9231Z" fill="white"/>
</svg>
