<svg width="32" height="32" viewBox="0 0 32 32" fill="none" xmlns="http://www.w3.org/2000/svg">
<path d="M25.3334 5.33334H6.66675C5.60588 5.33334 4.58847 5.75476 3.83832 6.50491C3.08818 7.25505 2.66675 8.27247 2.66675 9.33334V22.6667C2.66675 23.7275 3.08818 24.745 3.83832 25.4951C4.58847 26.2452 5.60588 26.6667 6.66675 26.6667H25.3334C26.3943 26.6667 27.4117 26.2452 28.1618 25.4951C28.912 24.745 29.3334 23.7275 29.3334 22.6667V9.33334C29.3334 8.27247 28.912 7.25505 28.1618 6.50491C27.4117 5.75476 26.3943 5.33334 25.3334 5.33334ZM25.3334 8L16.6667 13.96C16.4641 14.077 16.2341 14.1386 16.0001 14.1386C15.766 14.1386 15.5361 14.077 15.3334 13.96L6.66675 8H25.3334Z" fill="#DCD7D7"/>
</svg>
