<svg width="32" height="32" viewBox="0 0 32 32" fill="none" xmlns="http://www.w3.org/2000/svg">
<path d="M21.3332 9.33333C20.9554 9.33333 20.6389 9.20578 20.3838 8.95067C20.1278 8.69467 19.9998 8.37778 19.9998 8C19.9998 7.62222 20.1278 7.30533 20.3838 7.04933C20.6389 6.79422 20.9554 6.66667 21.3332 6.66667H26.6665C27.0443 6.66667 27.3607 6.79422 27.6158 7.04933C27.8718 7.30533 27.9998 7.62222 27.9998 8C27.9998 8.37778 27.8718 8.69467 27.6158 8.95067C27.3607 9.20578 27.0443 9.33333 26.6665 9.33333H21.3332ZM8.53317 27.2C8.08873 27.3778 7.6665 27.3387 7.2665 27.0827C6.8665 26.8276 6.6665 26.4556 6.6665 25.9667V6.66667C6.6665 5.93333 6.92784 5.30533 7.4505 4.78267C7.97228 4.26089 8.59984 4 9.33317 4H18.6665C18.2221 4.66667 17.8887 5.30578 17.6665 5.91733C17.4443 6.528 17.3332 7.22222 17.3332 8C17.3332 9.6 17.8385 11.0111 18.8492 12.2333C19.8607 13.4556 21.1332 14.2222 22.6665 14.5333C23.1776 14.6 23.6221 14.6333 23.9998 14.6333C24.3776 14.6333 24.8221 14.6 25.3332 14.5333V25.9667C25.3332 26.4556 25.1332 26.8276 24.7332 27.0827C24.3332 27.3387 23.9109 27.3778 23.4665 27.2L15.9998 24L8.53317 27.2Z" fill="#FF6363"/>
</svg>
