<svg width="20" height="20" viewBox="0 0 20 20" fill="none" xmlns="http://www.w3.org/2000/svg">
<path d="M9.31501 16.3075C9.39146 16.4185 9.49375 16.5093 9.61308 16.572C9.73241 16.6348 9.8652 16.6675 10 16.6675C10.1348 16.6675 10.2676 16.6348 10.3869 16.572C10.5063 16.5093 10.6086 16.4185 10.685 16.3075L18.185 5.47417C18.2718 5.34922 18.3227 5.20287 18.3322 5.05101C18.3417 4.89916 18.3094 4.74761 18.2387 4.61283C18.1681 4.47806 18.0619 4.36521 17.9317 4.28655C17.8015 4.2079 17.6522 4.16643 17.5 4.16667H2.50001C2.34821 4.1673 2.19946 4.20929 2.06974 4.28814C1.94003 4.36699 1.83426 4.4797 1.76382 4.61417C1.69337 4.74863 1.66091 4.89975 1.66993 5.05128C1.67895 5.20281 1.72911 5.34902 1.81501 5.47417L9.31501 16.3075Z" fill="#E2E2E2"/>
</svg>
