<svg width="19" height="19" viewBox="0 0 19 19" fill="none" xmlns="http://www.w3.org/2000/svg">
<path d="M2.37508 7.70866C2.37312 7.82901 2.40778 7.94713 2.47448 8.04733C2.54118 8.14754 2.63676 8.22511 2.74855 8.26975L8.44914 10.5503L10.7297 16.2515C10.7738 16.3618 10.8499 16.4563 10.9482 16.5229C11.0466 16.5895 11.1626 16.625 11.2813 16.625H11.2908C11.4111 16.6231 11.5279 16.5847 11.6259 16.515C11.7239 16.4452 11.7983 16.3473 11.8395 16.2343L16.5895 3.17181C16.6283 3.06555 16.636 2.95038 16.6117 2.83988C16.5873 2.72938 16.5318 2.62815 16.4519 2.5481C16.3719 2.46806 16.2707 2.41254 16.1602 2.38807C16.0497 2.36361 15.9346 2.37123 15.8283 2.41003L2.76577 7.16003C2.6527 7.20126 2.55481 7.27584 2.48504 7.37391C2.41528 7.47198 2.37694 7.58891 2.37508 7.70925V7.70866Z" fill="white"/>
</svg>
