<svg width="20" height="20" viewBox="0 0 20 20" fill="none" xmlns="http://www.w3.org/2000/svg">
<path d="M13.7497 3.74991C13.7497 1.67887 12.0708 0 9.99975 0C7.92871 0 6.24985 1.67887 6.24985 3.74991C6.24985 5.82095 7.92871 7.49982 9.99975 7.49982C12.0708 7.49982 13.7497 5.82095 13.7497 3.74991ZM9.12439 9.41774C6.80686 7.99902 3.05305 7.60919 1.16403 7.50177C0.529284 7.46583 0 7.94942 0 8.55995V17.2629C0 17.8226 0.452723 18.2894 1.03474 18.3195C2.74017 18.4089 6.19047 18.7367 8.57518 19.9378C8.94119 20.1222 9.37516 19.871 9.37516 19.4741V9.86538C9.37477 9.68297 9.28454 9.51578 9.12439 9.41774ZM18.8355 7.50177C16.9468 7.6088 13.1926 7.99902 10.8755 9.41774C10.7154 9.51578 10.6251 9.68961 10.6251 9.87202V19.473C10.6251 19.871 11.0603 20.1226 11.4275 19.9378C13.8118 18.7378 17.2601 18.4101 18.9652 18.3206C19.5472 18.2902 19.9999 17.8234 19.9999 17.2636V8.55995C19.9995 7.94942 19.4702 7.46583 18.8355 7.50177Z" fill="#B0B0B0"/>
</svg>
