<svg width="24" height="24" viewBox="0 0 24 24" fill="none" xmlns="http://www.w3.org/2000/svg">
<g clip-path="url(#clip0_205_348)">
<path d="M23.7813 0.219225C23.8851 0.323223 23.9561 0.455436 23.9854 0.599441C24.0148 0.743445 24.0011 0.892895 23.9463 1.02922L15.2178 22.8497C15.1408 23.0419 15.0124 23.2091 14.8466 23.333C14.6807 23.4568 14.4839 23.5326 14.2778 23.5518C14.0717 23.571 13.8643 23.533 13.6785 23.442C13.4926 23.3509 13.3354 23.2103 13.2243 23.0357L8.45726 15.5432L0.964764 10.7762C0.78974 10.6652 0.648791 10.508 0.557469 10.3219C0.466146 10.1359 0.428 9.92818 0.447241 9.7218C0.466482 9.51543 0.542361 9.31839 0.666505 9.15241C0.790649 8.98643 0.958233 8.85798 1.15076 8.78123L22.9713 0.0557246C23.1076 0.000843041 23.257 -0.0127765 23.401 0.0165577C23.545 0.045892 23.6773 0.116887 23.7813 0.220725V0.219225ZM9.95426 15.1052L14.0958 21.6122L21.1953 3.86422L9.95426 15.1052ZM20.1348 2.80372L2.38676 9.90322L8.89526 14.0432L20.1363 2.80372H20.1348Z" fill="#FF2A0C"/>
</g>
<defs>
<clipPath id="clip0_205_348">
<rect width="24" height="24" fill="white"/>
</clipPath>
</defs>
</svg>
