<svg width="64" height="64" viewBox="0 0 64 64" fill="none" xmlns="http://www.w3.org/2000/svg">
<path d="M55.0001 35.1L62.5001 42.5L29.2001 58.4C29.2001 58.4 24.8001 60.4 22.7001 57.2C14.5001 44.4 55.0001 35.1 55.0001 35.1Z" fill="#256382"/>
<path d="M28.3999 49.1C28.3999 49.1 21.9999 51.3 23.1999 55.6C24.3999 60 29.4999 57.3 29.4999 57.3L61.0999 42.6C61.0999 42.6 59.2999 37.9 62.4999 34.8L28.3999 49.1Z" fill="#D9E3E8"/>
<path d="M33.7 5L64 34.5L28.2 48.5L5.19995 12.7L33.7 5Z" fill="#42ADE2"/>
<path d="M34.6001 11.7L40.4001 17.9L18.7001 25.7L13.6001 17.8L34.6001 11.7Z" fill="white"/>
<path d="M61 38L39.9 46.6L60.7 37.1L61 38ZM60.7 40.6L38.2 49.9L60.2999 39.6L60.7 40.6ZM60.9 42L32.2 54.5L60.5 41.1L60.9 42Z" fill="#94989B"/>
<path d="M22.7 57.2C19.2 49.9 28.2 48.6 28.2 48.6L5.2 12.7C5.2 12.7 0 12.6 0 18C0 20.2 1 21.9 1 21.9L22.7 57.2Z" fill="#428BC1"/>
</svg>
