<svg width="28" height="28" viewBox="0 0 28 28" fill="none" xmlns="http://www.w3.org/2000/svg">
<path d="M6.99999 23.8H25.2V26.6H6.99999C4.67599 26.6 2.79999 24.724 2.79999 22.4V5.6C2.79999 3.276 4.67599 1.4 6.99999 1.4H25.2V21H6.99999C6.22999 21 5.59999 21.63 5.59999 22.4C5.59999 23.17 6.22999 23.8 6.99999 23.8ZM9.79999 18.9V3.5C9.79999 3.108 9.49199 2.8 9.09999 2.8C8.70799 2.8 8.39999 3.108 8.39999 3.5V18.9C8.39999 19.292 8.70799 19.6 9.09999 19.6C9.49199 19.6 9.79999 19.292 9.79999 18.9Z" fill="#FF6363"/>
</svg>
