<svg width="66" height="66" viewBox="0 0 66 66" fill="none" xmlns="http://www.w3.org/2000/svg">
<path d="M56.7342 58.7503C55.2853 58.972 13.7517 59.7042 12.0089 58.8431C9.68344 57.6985 9.29673 54.4758 10.5033 52.2019C11.4933 50.3353 14.0302 50.2889 15.7884 50.258C18.4491 50.2116 54.2334 50.2322 56.5022 50.5622C57.0075 50.6395 57.4097 50.5674 57.5077 51.1552C57.6211 51.8564 57.322 52.7227 57.2963 53.4394C57.2602 54.3056 57.3788 55.1616 57.4819 56.0175C57.5541 56.6311 57.9511 57.3788 57.8995 57.9872C57.8531 58.5699 57.2189 58.6781 56.7342 58.7503Z" fill="white"/>
<path d="M62.7669 45.2719C62.6483 44.2664 62.6483 43.2351 62.5349 42.2194C62.0966 38.2851 61.6996 34.3509 61.2974 30.4167C60.7663 25.147 60.2455 19.8825 59.6371 14.6231C59.3793 12.3698 59.2504 10.0547 58.5594 7.8839C57.358 4.10952 52.8876 4.4189 49.7371 4.18171C44.5757 3.79499 39.4658 3.58874 34.2838 3.61452C31.3447 3.62999 28.4005 3.66609 25.4615 3.7228C22.7802 3.77437 20.0938 3.78984 17.4074 3.90843C16.0616 3.9703 14.7004 4.11468 13.3546 4.23327C10.3743 4.5014 7.37334 5.89358 5.91412 8.57483C5.26959 9.76593 4.96022 11.1426 4.76428 12.473C4.22803 16.1133 3.90318 19.7794 3.67115 23.4506C3.43397 27.1064 3.40818 30.7673 3.39272 34.4283C3.37725 38.8523 3.11428 43.2712 3.11428 47.6901C3.10912 52.0575 2.76365 56.7755 6.38334 59.9259C7.60022 60.983 9.00787 61.612 10.5083 61.9987C13.0143 62.6484 52.9133 62.3236 55.5121 62.1689C57.7654 62.0348 61.9419 62.6742 62.1791 59.3587C62.2513 58.3017 61.6016 57.2395 61.1272 56.332C60.6271 55.3833 60.2146 54.3469 60.1579 53.2641C60.1063 52.2173 60.4105 51.1964 60.5446 50.1703C61.3747 50.2012 62.1791 49.6495 62.5658 48.9328C63.0608 48.0305 62.8855 46.2773 62.7669 45.2719ZM56.3835 58.7503C54.9397 58.972 13.401 59.7042 11.6582 58.8431C9.33272 57.6984 8.946 54.4758 10.1577 52.2019C11.1426 50.3353 13.6846 49.7062 15.4429 49.6753C18.1035 49.6289 54.0632 48.2419 56.3319 48.5719C56.6568 48.6183 57.0847 48.5822 57.2652 48.9225C57.3683 49.1236 57.3632 49.3144 57.291 49.5155C57.0177 50.2683 56.8785 51.0623 56.8166 51.8564C56.7341 52.9134 56.631 53.9756 56.7238 55.0378C56.7754 55.5895 56.8733 56.1309 57.059 56.6569C57.2085 57.0797 57.5952 57.5334 57.554 57.9923C57.4972 58.5698 56.8682 58.6781 56.3835 58.7503ZM58.446 44.8387C58.4305 45.0141 58.3996 45.1791 58.3377 45.3337C57.8685 46.5197 54.7077 45.8133 53.7744 45.7978L46.5763 45.6741C43.6166 45.6225 40.6569 45.5761 37.6921 45.5245C34.6654 45.4781 31.6387 45.4266 28.6171 45.3801C26.0235 45.3389 23.4402 45.3028 20.8569 45.2616C19.2069 45.2358 17.5569 45.2152 15.9121 45.1997C15.6955 45.1945 15.4738 45.1945 15.2521 45.1945C11.2302 45.1945 9.15225 47.4581 9.15225 47.4581C9.02334 47.7366 9.00272 48.412 8.65209 48.5306C8.27568 48.6595 8.13131 48.1387 8.05397 47.8551C7.8735 47.1642 7.9199 46.3908 7.93022 45.6844C7.94568 44.3901 8.03334 43.1062 8.05397 41.812C8.12615 37.6716 8.27053 33.5362 8.42006 29.4009C8.57475 25.2295 8.75006 21.0633 8.946 16.897C9.01818 15.3501 9.09037 13.8084 9.17803 12.2667C9.28631 10.3022 9.17287 8.54905 11.2354 7.72921C16.603 5.59452 23.1824 6.29062 28.8543 6.1978C34.2632 6.1153 39.6566 6.6464 45.0552 6.79077C46.7465 6.83718 48.4222 7.13109 50.1341 7.15687C51.779 7.17749 53.6094 7.32187 54.7799 8.63671C55.3832 9.31218 55.6977 10.1733 55.8524 11.055C56.0122 11.9676 56.2855 12.8339 56.3835 13.7723C56.9352 18.9647 57.2446 24.1776 57.6158 29.3855C57.786 31.6903 57.9665 33.99 58.1933 36.2845C58.4615 39.0741 58.6729 42.0492 58.446 44.8387Z" fill="#2F2F2F"/>
<path d="M4.31068 57.1622C5.54303 58.7039 6.16178 56.8528 6.16178 56.8528C6.47115 50.6808 13.5662 50.3714 13.5662 50.3714C17.7324 49.598 60.5447 50.1703 60.5447 50.1703C61.3749 50.2012 62.1793 49.6495 62.566 48.9328C63.061 48.0253 62.8857 46.2722 62.7671 45.2667C62.6485 44.2612 62.6485 43.23 62.5351 42.2142C62.0968 38.28 61.6997 34.3458 61.2976 30.4116C60.7665 25.1419 60.2457 19.8773 59.6372 14.618C59.3794 12.3647 59.2505 10.0495 58.5596 7.87874C57.3582 4.10437 52.8877 4.41374 49.7372 4.17655C44.5758 3.78983 39.466 3.58358 34.284 3.60937C31.3449 3.62483 28.4007 3.66093 25.4616 3.71765C22.7804 3.76921 20.094 3.78468 17.4076 3.90327C16.0618 3.96515 14.7005 4.10952 13.3547 4.22812C10.3744 4.49624 7.3735 5.88843 5.91428 8.56968C5.26975 9.76077 4.96037 11.1375 4.76443 12.4678C4.22818 16.1133 3.90334 19.7794 3.67131 23.4506C3.43412 27.1064 3.40834 30.7673 3.39287 34.4283C3.3774 38.8523 3.11443 43.2712 3.11443 47.6901C3.10928 50.9231 2.92365 54.3417 4.29006 57.1828L4.31068 57.1622Z" fill="#D7598B"/>
<path d="M45.9937 18.7481C46.0607 19.372 45.6018 19.8825 44.9779 19.8825H24.1364C23.5125 19.8825 22.9968 19.3669 22.9968 18.743V13.6847C22.9968 13.0556 23.5125 12.5452 24.1364 12.5452H44.1993C44.8232 12.5452 45.3956 13.0556 45.4575 13.6795L45.9937 18.7481Z" fill="white"/>
</svg>
