<svg width="64" height="64" viewBox="0 0 64 64" fill="none" xmlns="http://www.w3.org/2000/svg">
<path d="M53.9149 11.015C53.9149 11.015 54.1599 18.42 54.5549 21.44C54.9499 24.46 55.9799 26.3 55.9799 26.3C56.1849 28.155 55.4349 29.97 55.4349 29.97C55.4349 29.97 44.2299 57.115 42.1799 60.27C41.6349 61.105 40.7649 61.905 39.7849 62.03C37.9499 62.26 33.6999 61.11 31.3699 60.465C22.9799 58.15 12.2349 54.715 8.8999 53.555C7.2099 52.97 5.4799 51.49 4.8349 50.585C1.9049 46.5 3.2999 41.32 3.2999 41.32L53.9149 11.015Z" fill="white"/>
<path d="M39.2651 63.795C37.2151 63.795 34.0601 63.01 30.9101 62.14C22.6301 59.855 11.8151 56.405 8.33509 55.2C6.32509 54.505 4.30509 52.825 3.43009 51.605C0.0600893 46.91 1.56509 41.12 1.63509 40.88C1.69418 40.66 1.79603 40.4539 1.9348 40.2733C2.07357 40.0927 2.24656 39.9412 2.44388 39.8274C2.64121 39.7136 2.85901 39.6399 3.08484 39.6103C3.31068 39.5807 3.54013 39.5959 3.76009 39.655C3.98005 39.7141 4.18622 39.8159 4.36683 39.9547C4.54744 40.0935 4.69894 40.2665 4.81269 40.4638C4.92644 40.6611 5.00021 40.8789 5.02979 41.1048C5.05937 41.3306 5.04418 41.56 4.98509 41.78C4.96009 41.865 3.87009 46.265 6.25009 49.585C6.73509 50.265 8.20009 51.485 9.47509 51.925C12.9151 53.12 23.6301 56.535 31.8351 58.8C33.3701 59.22 38.0151 60.505 39.5751 60.315C39.8501 60.28 40.3401 59.93 40.7351 59.33C42.1751 57.115 49.3601 40.17 53.8351 29.315C53.8401 29.305 54.3351 28.06 54.2801 26.785C53.9251 26.04 53.1701 24.22 52.8401 21.675C52.4351 18.605 52.1951 11.385 52.1901 11.08C52.1825 10.8525 52.2198 10.6257 52.2998 10.4126C52.3799 10.1995 52.5012 10.0042 52.6567 9.83797C52.8123 9.67175 52.9991 9.53779 53.2064 9.44377C53.4137 9.34975 53.6376 9.2975 53.8651 9.29001C54.8351 9.22501 55.6251 10.01 55.6551 10.965C55.6601 11.04 55.9051 18.32 56.2801 21.225C56.6201 23.83 57.4951 25.455 57.5001 25.47C57.6101 25.67 57.6851 25.895 57.7101 26.12C57.9601 28.35 57.1401 30.415 57.0451 30.645C55.8951 33.44 45.7201 58.035 43.6401 61.23C42.7051 62.67 41.3801 63.59 40.0101 63.765C39.7801 63.78 39.5301 63.795 39.2651 63.795Z" fill="#2F2F2F"/>
<path d="M39.7901 63.19C39.4151 63.19 39.0551 63.01 38.8251 62.68C35.0101 57.035 36.8701 48.485 36.9501 48.125C37.0181 47.8255 37.2021 47.5652 37.4618 47.4012C37.7214 47.2372 38.0355 47.1828 38.3351 47.25C38.9601 47.39 39.3501 48.005 39.2101 48.63C39.1901 48.71 37.4901 56.57 40.7451 61.385C41.1001 61.915 40.9601 62.635 40.4351 62.99C40.2351 63.125 40.0101 63.19 39.7901 63.19Z" fill="#2F2F2F"/>
<path d="M51.4051 6.435C48.5501 5.385 38.6651 2.08 30.9451 0.750002L30.5351 0.680002C29.3401 0.470002 27.8501 0.205002 26.2151 0.205002C25.0251 0.205002 23.9551 0.340002 22.9501 0.625002C21.7451 0.960002 20.1151 1.645 19.2051 3.005C13.5301 11.44 2.17509 39.485 1.69509 40.675C1.53509 41.065 1.53509 41.49 1.66009 41.865C1.68009 41.885 1.68009 41.905 1.70009 41.925C2.55009 42.69 3.77009 42.16 4.71009 41.92C5.00009 41.845 5.30509 41.795 5.61009 41.765C5.79009 41.72 5.98509 41.69 6.21509 41.69C6.87009 41.69 7.67009 41.87 8.51009 42.055C8.83009 42.125 9.15509 42.2 9.48009 42.265C10.0801 42.385 12.9251 43.355 15.4301 44.21C17.1951 44.81 19.0401 45.44 20.5601 45.935L21.2401 46.155C26.0501 47.72 30.2001 49.07 31.3551 49.39C33.8751 50.09 35.5401 50.4 36.7501 50.4C37.1801 50.4 37.5551 50.36 37.8951 50.28C39.9751 49.78 41.1101 48.025 41.7851 46.75C41.9151 46.505 43.2051 43.425 50.5751 25.65C52.6651 20.62 54.3351 16.585 54.4701 16.275C54.8001 15.515 55.2001 14.465 55.4551 13.365C55.8451 11.695 56.0851 10.555 55.5801 9.36C54.9601 7.92 53.4101 7.18 51.4051 6.435Z" fill="#ED6C30"/>
</svg>
